HIERARCHY
ROOT Hips
{
	OFFSET 0.000000 0.000000 0.000000 
	CHANNELS 6 Xposition Yposition Zposition Zrotation Yrotation Xrotation
	JOINT LeftUpLeg
	{
		OFFSET 1.363060 -1.794630 0.839290 
		CHANNELS 3 Zrotation Yrotation Xrotation
		JOINT LeftLeg
		{
			OFFSET 2.448110 -6.726130 0.000000 
			CHANNELS 3 Zrotation Yrotation Xrotation
			JOINT LeftFoot
			{
				OFFSET 2.562200 -7.039590 0.000000 
				CHANNELS 3 Zrotation Yrotation Xrotation
				JOINT LeftToeBase
				{
					OFFSET 0.157640 -0.433110 2.322550 
					CHANNELS 3 Zrotation Yrotation Xrotation
					End Site
					{
						OFFSET 0.000000 0.000000 0.000000 
					}
				}
			}
		}
	}
	JOINT RightUpLeg
	{
		OFFSET -1.305520 -1.794630 0.839290 
		CHANNELS 3 Zrotation Yrotation Xrotation
		JOINT RightLeg
		{
			OFFSET -2.542530 -6.985550 0.000000 
			CHANNELS 3 Zrotation Yrotation Xrotation
			JOINT RightFoot
			{
				OFFSET -2.568260 -7.056230 0.000000 
				CHANNELS 3 Zrotation Yrotation Xrotation
				JOINT RightToeBase
				{
					OFFSET -0.164730 -0.452590 2.363150 
					CHANNELS 3 Zrotation Yrotation Xrotation
					End Site
					{
						OFFSET 0.000000 0.000000 0.000000 
					}
				}
			}
		}
	}
	JOINT Spine
	{
		OFFSET 0.028270 2.035590 -0.193380 
		CHANNELS 3 Zrotation Yrotation Xrotation
		JOINT Spine1
		{
			OFFSET 0.056720 2.048850 -0.042750 
			CHANNELS 3 Zrotation Yrotation Xrotation
			JOINT Neck1
			{
				OFFSET -0.054170 1.746240 0.172020 
				CHANNELS 3 Zrotation Yrotation Xrotation
				JOINT Head
				{
					OFFSET 0.104070 1.761360 -0.123970 
					CHANNELS 3 Zrotation Yrotation Xrotation
					End Site
					{
						OFFSET 0.000000 0.000000 0.000000 
					}
				}
			}
			JOINT LeftArm
			{
				OFFSET 3.362410 1.200890 -0.311210 
				CHANNELS 3 Zrotation Yrotation Xrotation
				JOINT LeftForeArm
				{
					OFFSET 4.983000 -0.000000 -0.000000 
					CHANNELS 3 Zrotation Yrotation Xrotation
					JOINT LeftHand
					{
						OFFSET 3.483560 -0.000000 -0.000000 
						CHANNELS 3 Zrotation Yrotation Xrotation
						JOINT LeftHandIndex1
						{
							OFFSET 0.715260 -0.000000 -0.000000 
							CHANNELS 3 Zrotation Yrotation Xrotation
							End Site
							{
								OFFSET 0.000000 0.000000 0.000000 
							}
						}
					}
				}
			}
			JOINT RightArm
			{
				OFFSET -3.136600 1.374050 -0.404650 
				CHANNELS 3 Zrotation Yrotation Xrotation
				JOINT RightForeArm
				{
					OFFSET -5.241900 -0.000000 -0.000000 
					CHANNELS 3 Zrotation Yrotation Xrotation
					JOINT RightHand
					{
						OFFSET -3.444170 -0.000000 -0.000000 
						CHANNELS 3 Zrotation Yrotation Xrotation
						JOINT RightHandIndex1
						{
							OFFSET -0.622530 -0.000000 -0.000000 
							CHANNELS 3 Zrotation Yrotation Xrotation
							End Site
							{
								OFFSET 0.000000 0.000000 0.000000 
							}
						}
					}
				}
			}
		}
	}
}
MOTION
Frames: 16
Frame Time: 0.041667
20.985775 18.086380 5.573290 155.937406 -87.943295 -141.212786 -24.787530 3.118358 -18.571636 0.925198 4.256650 12.044792 0.175841 -2.712605 -4.984384 0.022700 -0.971800 -2.671300 13.912354 7.809310 -27.961805 -3.171579 -8.318575 24.980474 0.562644 -5.861697 -4.385198 -0.741400 5.500300 -15.341300 2.132640 1.040398 2.601341 1.759534 0.286031 -0.602758 1.693083 -0.337128 23.593112 2.712500 -1.691900 14.403800 -83.351028 -56.410041 59.540154 29.240412 -43.415182 -11.730329 0.583271 -0.962081 32.290241 -7.125000 0.000000 0.000000 72.983738 45.901999 40.257830 -53.710497 58.042906 -29.055318 0.973652 -0.220431 4.824887 7.125000 0.000000 0.000000 
20.983441 18.081226 5.561135 153.788382 -87.942675 -139.064538 -24.768671 3.025286 -18.365023 0.905864 4.159112 11.770926 0.172965 -2.699135 -4.917252 0.023700 -0.992900 -2.729100 13.883206 7.927117 -27.923430 -3.185837 -8.362306 25.119267 0.577771 -5.987830 -4.766690 -0.734500 5.475200 -15.269100 2.210223 0.952629 2.678552 1.877650 0.241305 -0.505858 1.853078 -0.238410 23.531203 2.808500 -1.636800 14.378200 -82.139808 -56.322668 58.952844 29.915758 -44.019243 -12.232265 0.582036 -0.955449 32.647251 -7.125000 0.000000 0.000000 73.330433 45.354284 40.245340 -53.776511 58.039635 -29.110895 0.975407 -0.270505 7.046426 7.125000 0.000000 0.000000 
20.979551 18.081032 5.550342 158.283043 -87.886050 -143.506263 -24.687042 3.169739 -18.452469 0.908359 4.164481 11.789052 0.169649 -2.753808 -4.783359 0.114800 -2.184100 -6.014700 14.058289 8.032153 -27.957206 -3.194438 -8.379844 25.172833 0.597212 -6.116318 -4.803922 -0.875900 5.966800 -16.688100 2.238062 1.092441 2.720789 1.752068 0.315138 -0.471815 2.015290 -0.383023 23.573215 2.866300 -1.687000 14.423300 -81.251176 -56.172053 59.006105 30.710782 -44.663212 -12.821959 0.584847 -0.940311 33.119265 -7.125000 0.000000 0.000000 73.181523 44.762731 40.129037 -54.076736 58.103407 -29.383105 0.978719 -0.266494 8.303777 7.125000 0.000000 0.000000 
20.974592 18.085213 5.535950 164.151518 -87.843903 -149.279568 -24.533375 3.270088 -18.706678 0.927130 4.256673 12.055486 0.172928 -2.768009 -4.871512 0.263500 -3.302500 -9.122100 14.310028 7.956814 -28.101446 -3.193512 -8.367434 25.126228 0.576571 -5.951405 -4.577025 -0.919500 6.109300 -17.102000 2.277203 1.250604 2.804869 1.660034 0.393768 -0.339437 2.119996 -0.433927 23.691931 2.893400 -1.692600 14.516400 -80.563826 -56.104715 59.075718 31.399584 -45.212542 -13.344227 0.587030 -0.934359 33.694761 -7.125000 0.000000 0.000000 72.758608 44.186755 40.318784 -54.929519 58.352346 -30.085543 0.970006 -0.252825 9.264482 7.125000 0.000000 0.000000 
20.974592 18.077240 5.517280 166.091960 -87.893492 -151.166581 -24.378912 3.166373 -18.860148 0.943076 4.335082 12.279910 0.173874 -2.707520 -4.951408 0.291300 -3.470700 -9.592100 14.448722 7.896249 -28.179525 -3.190589 -8.357423 25.089997 0.558418 -5.820075 -4.572680 -0.831000 5.815600 -16.250300 2.306977 1.271527 2.893106 1.650010 0.405693 -0.247323 2.011726 -0.445220 23.546741 2.789600 -1.665100 14.465000 -79.495076 -56.082250 58.733631 32.100265 -45.773007 -13.884788 0.581056 -0.937715 34.403761 -7.125000 0.000000 0.000000 72.666154 43.749955 40.748886 -55.634409 58.563128 -30.630474 0.955395 -0.298265 10.678124 7.125000 0.000000 0.000000 
20.975954 18.068780 5.500944 165.343928 -87.875478 -150.374548 -24.275022 2.901062 -18.919230 0.955183 4.400107 12.460819 0.169503 -2.514292 -4.979627 0.223000 -3.039900 -8.390000 14.473989 8.034557 -28.155202 -3.184913 -8.346729 25.057357 0.598905 -6.102292 -4.645845 -0.798400 5.703200 -15.925500 2.395902 1.235815 2.959225 1.808140 0.390217 -0.186835 1.730951 -0.343173 23.283648 2.664000 -1.630600 14.321000 -78.358020 -55.905453 58.075710 32.824718 -46.306842 -14.427885 0.569247 -0.940605 35.375338 -7.125000 0.000000 0.000000 72.614639 43.573551 41.383436 -55.830435 58.615725 -30.779910 0.945002 -0.342960 12.315193 7.125000 0.000000 0.000000 
20.974592 18.072572 5.489081 166.183143 -87.748537 -151.137602 -24.201062 2.713753 -19.027386 0.966886 4.470524 12.658507 0.168214 -2.268486 -5.150651 0.118900 -2.223200 -6.122800 14.484777 8.178322 -28.208014 -3.178658 -8.328262 25.001821 0.624318 -6.266098 -4.506791 -0.770500 5.604800 -15.641900 2.521377 1.223399 3.033674 2.005432 0.382264 -0.078307 1.606552 -0.099118 23.353309 2.664800 -1.557300 14.341800 -77.435470 -55.614720 57.296276 33.573151 -46.819672 -14.975015 0.560766 -0.939299 36.334648 -7.125000 0.000000 0.000000 72.451108 43.655555 42.015409 -55.704746 58.574439 -30.705985 0.945771 -0.357074 13.963105 7.125000 0.000000 0.000000 
20.974009 18.079087 5.477023 170.391444 -87.602272 -155.241984 -24.092648 2.771290 -19.188629 0.970270 4.494257 12.734794 0.165636 -2.092081 -5.239593 0.104700 -2.086100 -5.743500 14.494539 8.461024 -28.360499 -3.181123 -8.330271 25.009726 0.609307 -6.150986 -4.535410 -0.678600 5.267100 -14.672000 2.611820 1.255366 3.033177 2.073945 0.401011 -0.120787 1.567944 0.071818 23.516421 2.666200 -1.492900 14.402200 -76.344080 -55.290911 56.714795 34.451909 -47.395144 -15.623445 0.562779 -0.927220 36.943256 -7.125000 0.000000 0.000000 72.361823 43.563295 42.511188 -55.939473 58.645457 -30.927802 0.945794 -0.386611 15.731290 7.125000 0.000000 0.000000 
20.971772 18.078406 5.461854 173.311057 -87.439105 -158.132180 -23.998630 2.962964 -19.208046 0.963850 4.463000 12.658894 0.164130 -2.062588 -5.234033 0.134900 -2.367000 -6.520900 14.553696 8.551732 -28.478521 -3.196411 -8.365442 25.117908 0.562971 -5.831629 -4.703754 -0.642000 5.125900 -14.268000 2.667033 1.247716 3.004595 2.120600 0.403847 -0.243037 1.369207 0.291829 23.590822 2.598600 -1.418500 14.397600 -74.988878 -54.948717 56.117921 35.395708 -47.986264 -16.326280 0.572175 -0.911416 37.463546 -7.125000 0.000000 0.000000 72.506767 43.485806 43.202916 -56.249680 58.738606 -31.210301 0.941960 -0.418794 17.440382 7.125000 0.000000 0.000000 
20.968661 18.069169 5.448143 170.600538 -87.206575 -155.438653 -24.094254 3.009627 -19.078568 0.950056 4.410295 12.501216 0.163019 -1.998815 -5.254180 0.124600 -2.275700 -6.268200 14.462765 8.554178 -28.508857 -3.221370 -8.419172 25.306299 0.542254 -5.697796 -4.857789 -0.708400 5.379200 -14.993300 2.620566 1.292496 3.013640 2.135005 0.432547 -0.323508 1.122010 0.474505 23.686865 2.480000 -1.349200 14.407000 -73.945056 -54.728282 55.663565 36.098198 -48.410245 -16.848574 0.577049 -0.899347 38.154046 -7.125000 0.000000 0.000000 72.424321 43.713629 43.652296 -56.279362 58.758876 -31.265233 0.943762 -0.424177 18.637248 7.125000 0.000000 0.000000 
20.970508 18.064696 5.445323 166.941306 -87.033902 -151.657472 -24.294483 2.879488 -19.050754 0.931998 4.339207 12.282382 0.155452 -1.827272 -5.184294 0.128300 -2.309300 -6.361200 14.290985 8.392634 -28.877150 -3.253077 -8.476069 25.529311 0.508938 -5.465294 -4.892652 -0.733900 5.473100 -15.263100 2.502784 1.346995 2.989421 1.963439 0.466822 -0.398761 1.214435 0.474403 23.879560 2.465000 -1.309500 14.488600 -73.059955 -54.657157 55.398577 36.619395 -48.713751 -17.223114 0.583328 -0.874971 38.862461 -7.125000 0.000000 0.000000 72.057578 43.955804 43.978387 -56.373668 58.797798 -31.373890 0.949737 -0.409678 19.276101 7.125000 0.000000 0.000000 
20.971286 18.066543 5.444156 158.997506 -86.767549 -143.590794 -24.774130 2.783499 -19.095192 0.920987 4.296532 12.135470 0.153040 -1.794503 -5.120292 0.146800 -2.469100 -6.803900 13.882965 7.697639 -29.558600 -3.287023 -8.524060 25.746281 0.378340 -4.524524 -4.696166 -0.624300 5.056300 -14.069100 2.426208 1.273532 2.999688 1.993001 0.426093 -0.388277 1.656847 0.413093 24.184580 2.673400 -1.314200 14.667500 -72.050414 -54.590647 54.870303 37.239737 -49.071941 -17.667172 0.592783 -0.844819 39.334015 -7.125000 0.000000 0.000000 71.647615 44.328407 44.402572 -56.489968 58.857619 -31.512820 0.958582 -0.418543 20.210436 7.125000 0.000000 0.000000 
20.966327 18.069752 5.430348 154.982472 -86.338475 -139.450737 -25.128156 2.754608 -19.196353 0.921853 4.306140 12.153418 0.152174 -1.737486 -5.134179 0.215600 -2.989500 -8.249600 13.363693 8.003659 -29.817737 -3.310713 -8.571872 25.938243 0.363838 -4.415471 -4.708144 -0.592700 4.928700 -13.705300 2.390045 1.302462 3.052867 2.159114 0.426030 -0.272776 2.028672 0.321895 24.301430 2.870000 -1.346500 14.748500 -71.009371 -54.529382 54.254862 37.730945 -49.350069 -18.029757 0.590848 -0.836384 39.993467 -7.125000 0.000000 0.000000 70.808015 44.861704 44.598011 -56.704072 58.964503 -31.727677 0.967927 -0.452407 21.129884 7.125000 0.000000 0.000000 
20.961368 18.068002 5.414887 159.074946 -86.244748 -143.267282 -24.916549 2.716082 -19.476999 0.921043 4.311522 12.161230 0.146157 -1.607959 -5.081497 0.303200 -3.540500 -9.787400 13.480913 8.641352 -29.962118 -3.330845 -8.602576 26.063519 0.422008 -4.819321 -4.771850 -0.738200 5.489000 -15.308700 2.343298 1.392337 3.056074 1.921119 0.474871 -0.138561 2.286724 0.206737 24.308445 2.959600 -1.358900 14.764500 -69.873775 -54.565101 53.688211 37.831709 -49.391847 -18.097361 0.573306 -0.842461 41.338142 -7.125000 0.000000 0.000000 69.897474 45.351761 44.844544 -56.691480 58.985055 -31.745418 0.975406 -0.464739 21.709703 7.125000 0.000000 0.000000 
20.958839 18.061487 5.405455 163.418775 -86.313038 -147.391182 -24.646363 2.831651 -19.758566 0.919157 4.299068 12.123449 0.146904 -1.700180 -5.014616 0.306400 -3.558900 -9.839000 13.970433 8.213421 -30.400125 -3.344984 -8.608394 26.092764 0.378794 -4.473913 -4.482255 -0.846800 5.869400 -16.406000 2.302752 1.393477 3.023476 1.594612 0.486586 -0.118648 2.403443 0.145034 24.309760 2.966000 -1.346200 14.750200 -68.983716 -54.587240 53.053149 37.605463 -49.234858 -17.907370 0.536190 -0.859563 43.136838 -7.125000 0.000000 0.000000 69.498199 45.757385 45.415647 -56.300349 58.872297 -31.463561 0.983590 -0.457721 22.528491 7.125000 0.000000 0.000000 
20.952422 18.065960 5.382215 165.886556 -86.136029 -149.847551 -24.534777 3.191411 -19.819542 0.915669 4.280004 12.074532 0.151330 -1.847605 -5.012478 0.278700 -3.395800 -9.382700 14.091976 8.278379 -30.494263 -3.352582 -8.619810 26.130612 0.370622 -4.406614 -4.448980 -0.710100 5.385500 -15.011500 2.206999 1.521021 3.007167 1.444542 0.554378 -0.209771 2.319243 0.053402 24.063917 2.808400 -1.314100 14.536800 -68.236426 -54.608772 52.793756 37.501756 -49.151457 -17.829729 0.507220 -0.876598 44.419386 -7.125000 0.000000 0.000000 69.357221 45.966593 45.733767 -55.911926 58.752803 -31.173001 0.985233 -0.476908 23.749729 7.125000 0.000000 0.000000 
